<?xml version="1.0" encoding="UTF-8"?><svg id="Layer_2" xmlns="http://www.w3.org/2000/svg" viewBox="0 0 1134.01 315.26"><defs><style>.cls-1{fill:#201934;}</style></defs><g id="Layer_1-2"><path class="cls-1" d="M605.86,83.52c-.78,14.46-1.63,28.91-2.31,43.38-.19,4.12.12,8.25.2,12.38.04,2.06.09,4.13.17,6.19.14,3.79.31,7.59.46,11.38.11,2.98.63,3.53,3.69,3.79,1.66.14,3.33.18,4.99.33,4.63.42,9.26.82,13.87,1.34,4.35.49,8.7,1.1,13.04,1.69,3.44.47,6.87.95,10.29,1.53,3.33.56,6.63,1.28,9.95,1.89,3,.55,6.02,1.05,9.03,1.55.66.11,1.1.07.89-.89-1.49-7.07-2.96-14.15-4.37-21.25-1.16-5.88-2.24-11.77-3.33-17.66-1.39-7.51-2.85-15.02-4.13-22.55-1.26-7.38-2.33-14.78-3.49-22.17-.71-4.55-1.48-9.09-2.09-13.65-.47-3.51-.73-7.04-1.1-10.56-.25-2.37-.53-4.74-.8-7.11-.16-1.39-.41-2.77-.47-4.16-.1-2.64-.36-5.32-.05-7.92.71-5.91,2.75-11.32,6.65-15.97,3.9-4.64,8.66-7.88,14.48-9.61,7.11-2.11,13.96-1.62,20.72,1.5,7.2,3.31,12.25,8.63,15.32,15.81,1.56,3.64,2.22,7.56,2.61,11.51.35,3.59.83,7.17,1.24,10.75.25,2.2.47,4.41.75,6.61.61,4.81,1.16,9.63,1.89,14.43,1.04,6.82,2.18,13.63,3.34,20.44.76,4.45,1.65,8.88,2.48,13.32,1.34,7.18,2.63,14.38,4.04,21.55,1.47,7.49,3.08,14.96,4.59,22.45.94,4.67,1.8,9.35,2.74,14.02,1.49,7.41,3.02,14.81,4.53,22.21.54,2.66,1.09,5.31,1.62,7.97.15.77.55.69,1.04.33,2.82-2.04,5.57-4.18,8.47-6.11,4.41-2.94,8.83-5.89,13.42-8.53,5.96-3.43,12.16-6.43,18.51-9.07,2.98-1.24,6.01-2.34,9.02-3.51.62-.24,1.25-.45,1.85-.73.21-.09.35-.33.53-.51-.16-.14-.3-.33-.48-.41-1.11-.54-2.21-1.12-3.37-1.56-8.19-3.16-16-7.11-23.45-11.72-8-4.96-15.66-10.42-22.74-16.62-6.64-5.82-11.73-12.82-15.01-21.07-1.28-3.23-1.91-6.62-2.44-10.04-.64-4.15-.45-8.33.24-12.4.72-4.21,2.28-8.18,4.86-11.77,2.15-3,4.66-5.63,7.35-8.03,3.58-3.2,7.6-5.85,11.87-8.13,4.92-2.63,10.18-4.32,15.43-6.06,3.28-1.09,6.59-2.09,9.92-2.98,3.89-1.03,7.8-2.04,11.75-2.8,6.53-1.26,13.09-2.45,19.67-3.39,4.81-.69,9.67-.94,14.52-1.36,3.45-.3,6.89-.63,10.34-.84,2.47-.15,4.96-.11,7.44-.2,2.8-.11,5.6-.29,8.4-.43.25-.01.5.02.75.02,5.64.1,11.29.21,16.93.28,2.06.03,4.13-.08,6.19-.02,6.49.19,12.9.95,18.71,4.1,2.3,1.25,4.55,2.7,6.32,4.73,1.25,1.43,2.51,2.84,3.77,4.26.11.12.26.2.4.29.08-.14.21-.27.23-.42.05-.33.06-.66.08-.99.29-6.52,2.32-12.42,6.2-17.68.33-.44.64-.98.72-1.5,1.01-7.11,4.38-12.97,9.71-17.64,4.37-3.82,9.45-6.24,15.33-6.97,6.08-.76,11.85.35,17.58,2.15,7.08,2.21,14.21,4.3,21.27,6.59,7.99,2.59,15.91,5.41,23.9,8,9.95,3.23,19.74,6.87,29.45,10.77,6.2,2.49,12.31,5.17,18.17,8.4,4.76,2.62,9.37,5.45,13.85,8.55,5.39,3.74,10.44,7.87,15.14,12.39,5.5,5.29,10.61,10.99,14.64,17.53,1.69,2.74,3.38,5.51,4.82,8.39,2.52,5.05,3.91,10.48,4.86,16.02,1,5.82,1.06,11.67.68,17.55-.47,7.31-2.46,14.13-6.42,20.3-1.46,2.28-3.21,4.4-5.05,6.39-2.25,2.43-4.68,4.72-7.13,6.95-5.31,4.83-11.37,8.57-17.6,12.09-6.43,3.64-13.16,6.65-20.02,9.36-4.06,1.6-8.23,2.94-12.38,4.31-2.58.86-5.2,1.56-7.8,2.35-.14.04-.24.22-.36.33.13.13.24.32.4.38,5.14,2.03,10.31,3.98,15.42,6.08,10.2,4.2,20.36,8.52,30.56,12.74,8.3,3.43,16.62,6.8,24.94,10.16,5.5,2.22,11.06,4.26,16.51,6.58,4.62,1.97,9.44,3.49,13.82,6,4.16,2.39,7.56,5.59,10.19,9.63,3.65,5.61,5.15,11.74,4.68,18.37-.24,3.48-1.17,6.84-2.65,9.97-2.72,5.74-6.66,10.45-12.33,13.52-4.5,2.44-9.23,3.92-14.45,3.78-4.77-.13-9.34-1.02-13.77-2.78-6.36-2.53-12.76-4.95-19.11-7.51-10-4.04-19.98-8.14-29.95-12.24-7.39-3.04-14.74-6.16-22.13-9.2-7.08-2.92-14.18-5.81-21.28-8.67-2.67-1.08-5.38-2.05-8.09-3.05-.26-.1-.74-.15-.84-.01-.16.21-.16.62-.09.91.82,3.6,1.74,7.18,2.47,10.8.55,2.72.61,5.46.55,8.27-.13,6.87-3.1,12.62-6.07,16.58-2.1,2.81-4.7,5.07-7.66,6.99-3.61,2.35-7.58,3.68-11.77,4.22-2.49.32-5.02.44-7.61-.09-2.43-.49-4.87-.86-7.16-1.85-3.28-1.41-6.41-3.06-8.91-5.7-.62-.66-1.39-1.18-2.02-1.83-1.45-1.49-1.47-1.56-3.19-.31-2.02,1.46-3.95,3.04-5.96,4.5-5.92,4.32-12.43,7.57-19.19,10.33-8.81,3.59-17.93,6.15-27.32,7.54-4.47.66-9.01.95-13.58,1.03-10.42.17-20.78-.7-31.14-1.44-3.87-.28-7.77-.61-11.64-1.04-5.18-.58-10.36-1.17-15.53-1.82-3.61-.46-7.21-.97-10.79-1.58-4.96-.84-9.9-1.8-14.85-2.68-3.17-.56-6.36-1.02-9.52-1.63-3.24-.62-6.46-1.33-9.67-2.08-3.53-.82-7.05-1.68-10.54-2.63-.62-.17-.95-.06-1.25.34-.39.53-.72,1.11-1.02,1.7-1.84,3.57-4.23,6.69-7.37,9.23-3.46,2.8-7.28,4.77-11.64,5.83-3.18.77-6.35,1.17-9.57.83-4.9-.52-9.5-1.9-13.62-4.78-2.12-1.48-4.08-3.06-5.84-4.96-3.3-3.55-5.54-7.68-6.66-12.33-1.68-6.97-3.96-13.75-6.05-20.59-2.92-9.59-5.8-19.2-8.38-28.89-.87-3.25-1.67-6.52-2.49-9.78-.35-1.4-.47-1.57-2.01-1.59-2.59-.04-5.06-.69-7.57-1.23-2.74-.59-5.51-1.06-8.26-1.6-2.99-.59-5.98-1.2-8.98-1.8-1.53-.31-3.07-.61-4.61-.89-3.73-.7-7.45-1.41-11.19-2.07-1.79-.32-3.59-.58-5.39-.81-2.87-.38-5.75-.73-8.63-1.06-3.29-.38-6.63-.53-9.87-1.14-2.71-.51-5.43-.61-8.16-.83-1.18-.1-1.26-.04-1.26,1.2,0,2.56.06,5.13.18,7.69.1,2.13.33,4.26.5,6.39.39,4.92.81,9.85,1.17,14.78.24,3.21.39,6.42.59,9.63.25,4.03.5,8.05.75,12.08.01.17,0,.33-.01.5-.06,4.22.04,8.46-.22,12.67-.39,6.38-2.36,12.25-6.33,17.37-2.73,3.52-6.1,6.24-10.07,8.3-5.92,3.08-12.2,3.59-18.6,2.54-5.3-.87-9.98-3.27-14.08-6.82-5.22-4.52-8.34-10.25-9.53-16.96-.63-3.55-1.02-7.16-1.07-10.81-.05-3.87-.47-7.73-.71-11.59-.11-1.73-.16-3.46-.26-5.19-.26-4.86-.51-9.72-.8-14.58-.25-4.28-.52-8.55-.8-12.83-.25-3.78-.55-7.56-.78-11.34-.12-1.98-.16-3.96-.19-5.94-.06-2.9-.01-5.79-.13-8.69-.18-4.28-.45-8.56-.7-12.84-.18-3.21-.34-6.42-.59-9.63-.24-3.11-.62-6.22-.87-9.33-.25-3.04-.4-6.09-.62-9.13-.25-3.44-.56-6.89-.8-10.33-.07-.99.05-2,0-2.99-.03-.73-.18-1.47-.3-2.19-.11-.61-.51-.59-.9-.31-1.27.94-2.5,1.92-3.76,2.86-6.73,4.98-13.75,9.53-20.78,14.08-8.42,5.45-16.92,10.78-25.68,15.68-.71.39-.88.91-.72,1.65,1.44,6.83,2.87,13.67,4.32,20.51,1.71,8.04,3.51,16.05,5.13,24.11,1.11,5.48,2.03,10.99,2.94,16.51.29,1.78.4,3.61.41,5.41,0,1.87.03,3.73-.17,5.62-.33,3-1.04,5.86-2.3,8.57-3.52,7.57-9.13,12.94-17.03,15.79-2.39.86-4.89,1.27-7.46,1.57-6.2.73-11.82-1.02-17.11-3.83-3.65-1.94-6.79-4.74-9.2-8.19-3.56-5.11-5.53-10.8-6.48-16.94-.76-4.87-1.91-9.67-2.9-14.5-1.37-6.68-2.74-13.35-4.13-20.03-1.82-8.77-3.63-17.54-5.48-26.3-1.25-5.95-2.47-11.91-3.88-17.82-1.54-6.47-3.26-12.9-4.96-19.34-1.85-6.99-3.76-13.96-5.65-20.93-.11-.39-.23-.78-.39-1.15-.05-.11-.25-.16-.39-.21-.02,0-.11.12-.13.2-.04.16-.06.32-.08.49-.27,2.13-.58,4.26-.79,6.39-.5,5.03-.95,10.07-1.44,15.1-.34,3.46-.71,6.92-1.09,10.38-.3,2.71-.6,5.43-.94,8.13-.55,4.43-1.1,8.86-1.7,13.28-.48,3.52-.95,7.04-1.6,10.53-.73,3.96-1.79,7.87-2.44,11.84-.63,3.84-1.72,7.56-2.72,11.29-1.75,6.51-3.68,12.98-5.4,19.5-.72,2.7-1.15,5.48-1.63,8.24-.85,4.89-1.47,9.81-1.91,14.76-.32,3.61-.82,7.23-1.57,10.78-1.11,5.2-3.09,10.04-6.64,14.16-2.92,3.4-6.37,5.98-10.41,7.88-5.36,2.51-10.99,3.16-16.73,2.24-7.63-1.23-14-4.93-18.75-11.08-3.24-4.19-5.17-8.99-5.9-14.28-.4-2.87-.76-5.72-.45-8.63.44-4.12.58-8.28,1.23-12.36.68-4.31,1.14-8.65,1.92-12.96,1.46-8.06,3.97-15.81,6.03-23.69,1.21-4.62,2.42-9.23,3.61-13.85.27-1.04.09-1.23-1.1-1.34-7.42-.71-13.88-3.52-19.09-8.92-3-3.11-5.49-6.62-7.58-10.4-3.08-5.58-6.12-11.18-9.14-16.79-4.05-7.51-8.1-15.01-12.08-22.55-3.98-7.54-7.91-15.1-11.8-22.69-3.21-6.26-6.39-12.53-9.46-18.86-1.52-3.12-2.76-6.37-4.14-9.55-.11-.26-.39-.44-.58-.66-.18.24-.44.45-.54.72-2.34,6.41-4.69,12.82-7,19.25-1.53,4.26-3,8.54-4.47,12.82-1.78,5.21-3.49,10.45-5.3,15.65-2.98,8.55-5.93,17.1-9.36,25.48-3.21,7.84-6.04,15.83-8.48,23.94-1.28,4.25-2.24,8.6-3.31,12.92-1.08,4.31-2.14,8.63-3.17,12.96-1.11,4.65-2.28,9.28-3.22,13.96-.46,2.31-.79,4.68-.53,7.08.15,1.41.63,2.57,1.91,3.29.49.27.95.36,1.59.34,2.57-.1,4.81-1.08,7.02-2.23,5.29-2.75,10.51-5.65,15.89-8.19,6.36-3,12.88-5.67,19.33-8.5,1.44-.63,2.86-1.3,4.26-2.01,2.75-1.41,5.69-2.24,8.7-2.72,4.21-.67,8.41-.47,12.51.85,4.36,1.4,8.24,3.56,11.73,6.59,4.48,3.9,7.34,8.78,8.8,14.38,1.78,6.84,1.02,13.53-2.06,20-1.59,3.35-3.75,6.22-6.33,8.78-2.18,2.16-4.71,3.93-7.56,5.16-2.04.88-4.17,1.58-6.21,2.47-1.75.75-3.44,1.64-5.15,2.49-3.71,1.83-7.37,3.77-11.14,5.47-2.93,1.32-5.98,2.39-9.02,3.48-4.58,1.63-9.17,3.22-13.79,4.74-5.64,1.85-11.42,3.09-17.28,4.02-3.17.5-6.35.91-9.52,1.32-1.47.19-2.95.34-4.43.39-5.98.21-11.98.26-17.92-.47-3.59-.44-7.24-.75-10.74-1.83-1.97-.61-4.03-.9-6-1.47-3.87-1.11-7.22-3.22-10.29-5.74-4.45-3.64-7.59-8.28-10.08-13.41-1.99-4.09-3.62-8.31-4.78-12.7-.13-.48-.2-.98-.4-1.42-.17-.37-.45-.68-.95-.23-1.73,1.57-3.47,3.11-5.23,4.64-5.78,5.03-12.11,9.3-18.85,12.9-7.38,3.94-15.24,6.74-23.37,8.71-4.72,1.14-9.51,1.91-14.34,2.43-4.45.48-8.91.66-13.38.37-.89-.06-1.8.11-2.7.16-.33.02-.67.03-1-.02-2.78-.4-5.57-.71-8.32-1.24-3.15-.61-6.3-1.29-9.36-2.21-2.76-.83-5.51-1.85-8.08-3.14-3.68-1.85-7.27-3.89-10.76-6.08-3.77-2.37-7.19-5.24-10.45-8.27-3.35-3.12-6.47-6.46-9.13-10.19-1.97-2.77-4.03-5.48-5.9-8.31-3.21-4.83-6.3-9.76-8.77-15.01-2.57-5.46-5.07-10.98-7.21-16.62-2.3-6.07-4.08-12.32-5.59-18.65-.99-4.17-1.82-8.36-2.4-12.58-.47-3.42-.64-6.89-.79-10.36-.24-5.58.18-11.12.59-16.66.27-3.7.97-7.36,1.47-11.04.32-2.38.55-4.77.97-7.13.58-3.24,1.34-6.45,1.93-9.69.79-4.3,1.93-8.51,3.2-12.69,1.87-6.15,3.91-12.23,6.75-18.02,1.49-3.03,2.82-6.15,4.46-9.1,2.61-4.69,5.76-9.03,9.23-13.14,3.98-4.72,8.48-8.93,13.3-12.72,5.34-4.19,11.09-7.79,17.2-10.84,5.43-2.71,11.1-4.74,16.8-6.67,2.94-.99,6.05-1.61,9.13-2.02,6.07-.81,12.17-1.34,18.31-.74,2.75.27,5.32,1.15,7.81,2.21,4.65,1.98,8.52,5.08,11.56,9.12,3.19,4.22,5.26,8.89,5.79,14.26.19,1.92.25,3.8.11,5.69-.3,4.17-1.53,8.04-3.47,11.77-2.65,5.1-6.63,8.85-11.41,11.75-3.33,2.02-7.07,3.31-10.97,3.62-3.18.26-6.17,1.02-9.07,2.24-2.75,1.16-5.55,2.24-8.21,3.58-5.02,2.52-8.82,6.46-11.74,11.17-4.51,7.27-7.41,15.25-9.8,23.42-1.29,4.43-2.23,8.93-2.95,13.51-.58,3.72-.86,7.43-.84,11.14.02,4.19.51,8.37,1.27,12.51,1.26,6.86,3.58,13.38,6.61,19.63,2.06,4.24,4.38,8.37,7.21,12.15,1.88,2.52,3.81,5.06,6.07,7.23,2.94,2.83,6.48,4.73,10.6,5.53,7.72,1.5,14.7-.88,21.47-4.03,5.32-2.47,9.87-6.16,13.84-10.43,5.07-5.44,8.69-11.77,10.5-19.03.32-1.28.2-2.66.42-3.97.77-4.71.13-9.33-.89-13.91-.39-1.76-1.15-3.44-1.77-5.14-1.09-2.99-3.88-3.25-5.99-.77-1.82,2.14-3.53,4.37-5.25,6.59-2.14,2.74-4.25,5.47-6.86,7.83-4.56,4.14-9.79,6.62-15.93,7.37-7.84.96-14.97-.77-21.31-5.43-6.86-5.05-10.89-11.8-11.95-20.32-.77-6.2.4-11.96,3.23-17.48,2.31-4.5,5.54-8.35,8.52-12.38,2.46-3.33,5.13-6.47,8.2-9.26,3.5-3.18,6.87-6.53,10.45-9.62,4.71-4.06,9.59-7.94,14.98-11.08,5.16-3.01,10.58-5.46,16.46-6.69,5.71-1.2,11.5-1.55,17.28-.71,6.07.87,11.87,2.71,17.28,5.72,3.76,2.09,7.35,4.34,10.66,7.12,5.35,4.5,9.49,9.9,12.82,16,1.59,2.91,3.08,5.86,4.37,8.92.15.37.44.68.66,1.01.26-.37.61-.71.76-1.12,1.41-3.69,2.86-7.38,4.15-11.11,2.34-6.77,4.55-13.58,6.88-20.36,2.63-7.63,5.29-15.24,8.04-22.83,2.07-5.73,4.21-11.44,6.46-17.1,1.82-4.59,3.61-9.21,6.16-13.46,4.6-7.66,11.31-12.38,20.09-14.05,2.17-.41,4.42-.59,6.63-.55,4.1.07,7.97,1.27,11.64,3.06.56.27.8.36.99-.38.54-2.15,1.02-4.34,1.79-6.41,2.3-6.16,6.23-11.13,11.81-14.6,5-3.1,10.49-4.66,16.47-4.52,5.09.12,9.84,1.44,14.17,3.93,3.28,1.88,6.16,4.35,8.57,7.41,3.66,4.64,5.49,9.94,6.43,15.62.4,2.43.56,4.91.65,7.38.15,4.41,1.35,8.6,2.55,12.78,1.57,5.48,3.49,10.84,5.74,16.08,2.19,5.1,4.12,10.31,6.51,15.31,3.6,7.54,7.48,14.95,11.29,22.39,1.88,3.68,3.87,7.31,5.82,10.96.23.44.52.85.78,1.27.13.21.26.41.39.62.09-.21.24-.41.27-.62.34-2.71.63-5.42.99-8.13.48-3.68,1-7.36,1.5-11.04.02-.16.02-.33.04-.5.41-3.87.76-7.75,1.24-11.61.37-2.94.9-5.87,1.35-8.8.06-.41.05-.83.1-1.24.52-3.76,1.07-7.52,1.58-11.28.36-2.62.64-5.26,1.03-7.87.38-2.53.86-5.03,1.27-7.55.31-1.87.58-3.75.85-5.63.32-2.21.57-4.43.96-6.62.6-3.4,1.3-6.79,1.93-10.19.32-1.71.5-3.44.87-5.13.9-4.1,1.44-8.29,3.11-12.19,2.33-5.45,5.83-9.96,10.73-13.35,3.16-2.19,6.6-3.72,10.38-4.48,1.53-.3,3.08-.63,4.63-.67,7.9-.2,14.99,1.93,21.05,7.24,1.9,1.66,3.58,3.46,5.04,5.47.37.51.61.62,1.19.41,4.11-1.51,8.36-1.83,12.7-1.58,14.22.83,28.44,1.57,42.66,2.48,4.12.26,8.2.98,12.3,1.5,2.46.32,4.94.57,7.38,1.02,2.91.54,5.82,1.18,8.68,1.94,3.98,1.06,7.99,1.97,11.84,3.51,6.04,2.42,11.52,5.67,16.39,10.04,2.68,2.41,4.95,5.15,7.32,7.81.16.18.37.31.56.46.09-.21.25-.42.27-.64.12-1.74.15-3.5.34-5.23.39-3.61.99-7.19,2.49-10.54,4.5-10.02,12.14-16.21,23-17.92,9.18-1.44,17.33,1.35,24.27,7.49,5.42,4.8,8.5,10.86,9.44,18.03.39,2.95.59,5.89.42,8.87-.8,14.38-1.57,28.75-2.35,43.13.03,0,.06,0,.08,0ZM808.88,117.38c2.83.36,5.87.71,8.9,1.13,4.67.65,9.17,1.92,13.55,3.67,4.97,1.99,9.98,3.89,14.91,5.96,8.81,3.68,17.95,6.59,26.3,11.31,2.58,1.46,5.22,2.84,7.63,4.54,3.9,2.75,7.72,5.63,11.4,8.65,3.78,3.1,7.42,6.38,10.12,10.55,2.48,3.83,3.95,7.97,3.94,12.56,0,5.05-1.97,9.53-4.48,13.72-1.9,3.16-4.17,6.1-6.73,8.82-2.65,2.81-5.69,5.1-9.04,6.94-3.64,1.99-7.58,3.17-11.68,3.91-10.36,1.86-20.65,4.05-30.78,6.98-9.66,2.79-19.33,5.53-28.74,9.1-4.94,1.87-9.89,3.73-14.79,5.71-4.31,1.74-8.39,3.98-12.29,6.48-4.18,2.69-2.47,11.01,2.35,10.3,4.41-.65,8.85-1.12,13.32-.89,4.39.22,8.78.31,13.14,1.06,4.72.81,9.51,1.25,14.28,1.82,3.04.36,6.09.7,9.14,1,5.12.5,10.28.5,15.38,1.29,2.1.32,4.29-.05,6.43.05,3.24.16,6.45-.09,9.63-.56,4.56-.67,9.11-1.46,13.39-3.26,3.58-1.5,7.17-3,10.69-4.64,4.43-2.06,8.75-4.36,13.19-6.39,2.54-1.16,5.03-2.44,7.84-3.03,2.11-.44,4.22-.62,6.34-.87.62-.07.92-.27.87-.89-.02-.33-.06-.66-.12-.98-.63-3.31-1.31-6.61-1.91-9.92-1.55-8.57-3.07-17.14-4.6-25.72-1.26-7.03-2.57-14.06-3.75-21.1-1.33-7.94-2.56-15.9-3.8-23.86-.87-5.61-1.7-11.22-2.5-16.84-.78-5.46-1.5-10.92-2.23-16.38-.94-7-1.85-14.01-2.79-21.01-.21-1.55-.47-3.09-.71-4.63-.04-.24-.14-.47-.21-.7-.09.21-.17.43-.27.63-.82,1.51-1.57,3.06-2.48,4.51-3.16,5.06-7.49,8.83-12.93,11.24-4.82,2.14-9.95,2.84-15.21,2.72-3.81-.09-7.6-.43-11.44-.24-4.46.22-8.95-.08-13.43-.11-2.9-.02-5.8.06-8.69.09-.17,0-.33,0-.5.02-2.38.17-4.77.33-7.15.5-2.96.21-5.94.29-8.88.64-3.92.46-7.8,1.2-11.72,1.67-5.4.65-13.81,4.55-11.57,4.54,4.14-.03,8.29-.05,12.67-.08ZM960.87,89.06s-.06,0-.09.01c.09.74.16,1.47.26,2.21.52,3.91,1.07,7.81,1.58,11.72.53,4.07.97,8.16,1.53,12.23.77,5.53,1.6,11.05,2.43,16.58.73,4.87,1.48,9.74,2.21,14.61.07.49.19.71.76.53.54-.17,1.14-.15,1.7-.26,2.89-.61,5.81-1.13,8.66-1.9,4.05-1.08,8.14-2.03,12.02-3.67,5.68-2.4,10.93-5.54,15.82-9.25,3.49-2.64,6.86-5.45,9.6-8.95,1.27-1.62,1.91-3.44,2.49-5.31.2-.66.04-1.47-.07-2.19-.43-2.83-2.08-4.82-4.51-6.17-2.94-1.64-5.83-3.4-8.9-4.76-5.63-2.5-11.31-4.91-17.09-7.04-8.57-3.15-17.24-6.01-25.88-8.99-.7-.24-1.41-.46-2.13-.61-.13-.03-.43.29-.5.49-.07.21.06.48.1.72ZM472.75,73.33v-.04c-2.99-.16-5.98-.31-8.97-.49-.9-.05-.96.3-.64,1,.13.29.12.65.21.96,2.87,10.54,5.75,21.08,8.63,31.63,1.54,5.63,3.08,11.25,4.65,16.87.43,1.53.58,1.58,1.95.71,6.7-4.28,13.45-8.49,20.07-12.9,2.26-1.51,4.54-3.23,6.2-5.34,2.89-3.67,3.3-7.96,1.73-12.41-.94-2.68-2.36-5.1-4-7.39-2.75-3.82-6.25-6.86-10.47-8.9-4.35-2.09-9.01-3.19-13.86-3.41-1.83-.08-3.66-.2-5.49-.29Z"/></g></svg>