<?xml version="1.0" encoding="UTF-8"?><svg id="Layer_2" xmlns="http://www.w3.org/2000/svg" viewBox="0 0 334.69 171.47"><defs><style>.cls-1{fill:#1a152d;}</style></defs><g id="Layer_1-2"><path class="cls-1" d="M53.9,52.79c.07-2.25.15-4.51.19-6.76.06-3.59.04-7.18.16-10.77.07-2.04.43-4.06.55-6.1.08-1.43.4-2.8.69-4.17.57-2.66,1.85-4.89,4.2-6.43,1.66-1.09,3.4-2.01,5.28-2.58,1.49-.45,3.04-.71,4.58-.95,2.36-.37,4.72-.66,7.09-.96,1.75-.22,3.5-.41,5.25-.61,1.48-.18,2.95-.38,4.43-.53.86-.09,1.72-.1,2.58-.17,2.44-.19,4.89-.15,7.33-.08.99.03,1.98.04,2.97.09.54.03,1.01-.09,1.41-.46,1.97-1.79,4.35-2.43,6.95-2.38,1.54.03,3.09.05,4.62.2,4.76.49,9.55.47,14.32.59.98.03,1.96-.05,2.94-.14.29-.03.58-.2.83-.38,1.34-.97,2.88-1.48,4.49-1.54,1.76-.07,3.43.42,4.86,1.49.47.35.95.49,1.52.51,3.84.11,7.67.25,11.51.35,1.84.05,3.48.62,4.89,1.77.61.49,1.16.71,1.98.64,3.11-.26,6.23-.11,9.35-.06,2.84.05,5.68.06,8.52.02,2.28-.03,4.56-.16,6.83-.26,1.88-.09,3.76-.2,5.65-.3,1.84-.1,3.68-.21,5.53-.32.94-.05,1.88-.1,2.82-.16.23-.02.46-.11.69-.12.42-.03.63-.19.62-.65-.02-1.04.3-2.02.69-2.96,1.52-3.73,4.35-5.88,8.26-6.57.96-.17,1.97.01,2.96,0,.7,0,1.41-.07,2.11-.1.12,0,.24,0,.36,0,2.21-.01,4.41-.07,6.62-.03,3.28.06,6.57.15,9.85.29,4.02.16,8.05.26,12.06.6,3.35.28,6.7.82,9.85,2.11.76.31,1.51.64,2.24,1.03.39.21.63.14.9-.17.34-.38.7-.76,1.1-1.08,1.27-1.03,2.67-1.76,4.35-1.88,1.99-.15,3.98-.35,5.97-.53,1.99-.18,3.98-.36,5.97-.54,1.95-.18,3.9-.35,5.85-.55,1.44-.15,2.88-.32,4.34-.35,1.76-.04,3.52-.22,5.29-.31,2.24-.11,4.48-.2,6.71-.28,1.49-.05,3,0,4.48-.13,2.02-.19,4.02-.04,6.03,0,2.33.06,4.6.43,6.77,1.34,1.49.62,2.94,1.3,4.11,2.44,1,.98,1.7,2.18,2.24,3.44.54,1.26.9,2.59,1.03,3.96.17,1.73.04,3.45-.42,5.15-.6,2.23-1.72,4.21-2.89,6.16-1.25,2.08-2.66,4.06-4.23,5.92-.96,1.14-1.95,2.26-2.94,3.38-.78.88-1.59,1.75-2.38,2.62-.16.18-.32.35-.49.52-2.63,2.56-5.26,5.14-7.92,7.67-.83.79-1.76,1.46-2.65,2.18-.33.27-.33.33.07.53.77.39,1.56.73,2.32,1.14,2.67,1.42,5.33,2.86,7.99,4.29,3.59,1.94,6.85,4.39,10.13,6.8,3.35,2.45,6.66,4.97,9.92,7.53,1.61,1.26,3.08,2.7,4.62,4.04.83.73,1.63,1.47,2.23,2.42,1.41,2.22,1.93,4.55,1.41,7.18-.63,3.17-2.42,5.41-5.19,6.89-1.13.6-2.39.94-3.73.94-1.76,0-3.43-.24-5.04-1.03-.54-.26-1.04-.55-1.46-.94-1.84-1.66-3.63-3.39-5.48-5.04-2.75-2.46-5.6-4.81-8.65-6.9-2.26-1.55-4.56-3.04-6.98-4.34-1.13-.61-2.22-1.3-3.36-1.9-3.58-1.86-7.26-3.49-11.06-4.85-.81-.29-1.6-.65-2.4-.96-.41-.16-.6.01-.55.43.19,1.55.39,3.1.55,4.66.08.82.18,1.65.13,2.46-.15,2.43-.99,4.6-2.71,6.35-1.47,1.5-3.25,2.43-5.37,2.68-1.02.12-2.02.27-3.03-.06-.21-.07-.55.06-.74.22-.74.59-1.51,1.12-2.38,1.52-1.31.61-2.7.85-4.12.82-4.91-.1-9.81-.36-14.71-.35-3.44,0-6.87-.18-10.3-.06-2.93.1-5.84-.08-8.76-.06-1.93.02-3.86-.03-5.79.08-2.26.13-4.54.17-6.78.65-.76.16-1.56.18-2.34.21-2.04.07-3.97-.4-5.81-1.27-.99-.47-1.98-.96-2.88-1.57-1.35-.91-2.47-2.08-3.31-3.48-1.33-2.21-2.01-4.64-2.42-7.18-.35-2.16-.31-4.31-.21-6.47.09-1.85.25-3.69.39-5.54.1-1.21.22-2.43.33-3.64.24-2.7.48-5.4.72-8.11.12-1.33.24-2.66.35-3.99.13-1.45.23-2.9.37-4.35.17-1.68.37-3.35.55-5.03.02-.2,0-.4.02-.59.04-.33-.15-.42-.42-.42-.63,0-1.27-.03-1.9,0-.47.02-.93.1-1.4.14-1.37.11-2.73.22-4.1.33-1.56.12-3.13.26-4.69.36-.38.03-.6.12-.59.54,0,.16,0,.32-.01.47-.12,4.74-.27,9.49-.34,14.23-.02,1.76.15,3.52.24,5.29.05,1.06.08,2.12.18,3.18.2,2.02.44,4.04.69,6.06.2,1.63.42,3.26.66,4.88.28,1.85.62,3.7.9,5.55.25,1.7.41,3.42.69,5.12.33,1.98.36,3.98.43,5.97.05,1.5-.31,3-.99,4.38-.05.11-.04.26-.06.39.11-.04.22-.08.32-.13,2.7-1.51,5.59-2.43,8.65-2.91,1.78-.28,3.57-.43,5.37-.59,1.58-.14,3.15-.04,4.73-.07.59-.01,1.17-.14,1.75-.11,2.28.12,4.57.25,6.84.44,1.8.15,3.6.36,5.38.61,2.29.33,4.57.72,6.85,1.09,2.51.41,5.03.8,7.54,1.24,1.47.26,2.95.43,4.43.62,1.43.18,2.89.25,4.28.75,2.08.75,3.7,2.01,4.71,4.01.06.13.16.24.24.36.08-.14.17-.26.23-.41.35-.87.65-1.76,1.04-2.61,1.23-2.67,3.4-4.27,6.16-5.07,1.61-.46,3.24-.91,4.89-1.14,1.55-.21,3.14-.16,4.72-.17,2.48-.02,4.98-.13,7.45.04,7.73.53,15.48.57,23.23.86,1.54.06,3.09.19,4.63.07,1.39-.11,2.76-.06,4.13,0,3.58.13,6.63,2.29,7.73,6.01.43,1.44.34,2.93-.12,4.41-.69,2.23-2.11,3.82-4.11,4.93-.82.46-1.76.62-2.69.8-1.27.24-2.49-.11-3.74-.12-1.23,0-2.46-.04-3.68-.15-3.74-.34-7.49-.53-11.24-.47-4.98.08-9.95-.25-14.93-.22-2.2.01-4.4.16-6.6.26-.26.01-.51.04-.48.48.19,2.99.23,5.99.09,8.98-.05,1.01.06,1.08,1.03.97,1.71-.19,3.43-.35,5.14-.56,2.1-.26,4.21-.42,6.33-.55,1.76-.11,3.52-.31,5.29-.31,1.14,0,2.28-.04,3.42-.15,2.8-.26,5.61-.09,8.4.08,3.21.2,5.67,1.73,7.17,4.65,1.56,3.04.77,7.42-1.75,9.64-1.72,1.51-3.61,2.33-5.88,2.3-1.23-.02-2.45-.09-3.68-.09-1.81,0-3.63-.05-5.43.08-2.18.15-4.36.48-6.54.68-3.71.35-7.35,1.07-10.99,1.82-1.15.24-2.3.44-3.46.61-.38.06-.54.17-.55.58-.1,3.79-.26,7.59-.31,11.38-.02,1.96.15,3.92.27,5.88.03.53.21,1.06.31,1.59.49-.12.98-.22,1.46-.36,5.54-1.65,11.1-3.25,16.62-4.97,3.29-1.02,6.53-2.19,9.76-3.36,2.76-1,5.49-2.09,8.23-3.15.92-.35,1.79-.82,2.73-1.09,1.07-.3,1.99-.8,2.87-1.46,1.19-.88,2.57-1.24,4.07-1.35,2.77-.2,5.12.68,7.04,2.59,2.62,2.59,3.24,5.78,2.22,9.25-.64,2.18-2.09,3.85-4.09,4.96-1.1.61-2.23,1.13-3.55,1.17-.51.02-1.04.35-1.51.63-3.06,1.81-6.35,3.1-9.7,4.27-2.22.78-4.39,1.71-6.58,2.55-1.79.69-3.59,1.36-5.39,2.04-1.87.71-3.73,1.43-5.6,2.11-2.09.76-4.2,1.51-6.31,2.22-1.52.51-3.05.98-4.59,1.42-2.86.82-5.73,1.56-8.71,1.82-1.09.1-2.18.31-3.27.32-2.33.02-4.62-.25-6.75-1.34-2.39-1.23-3.98-3.16-4.89-5.64-.77-2.09-1.17-4.29-1.5-6.5-.04-.24-.09-.37-.36-.22-.62.33-1.26.64-1.88.99-2.09,1.18-4.31,2.06-6.58,2.86-2.37.83-4.77,1.51-7.23,1.99-1.53.3-3.08.54-4.63.73-1.75.22-3.5.4-5.26.51-1.14.07-2.29.01-3.44-.02-3.05-.09-6.09-.16-9.13-.32-1.52-.08-3.04-.34-4.55-.55-1.36-.19-2.72-.39-4.07-.62-1.04-.18-2.07-.43-3.1-.64-.39-.08-.47,0-.36.4.35,1.26.53,2.54.41,3.84-.21,2.27-.96,4.33-2.35,6.16-1.86,2.45-4.41,3.77-7.37,4.25-1.55.25-3.12,0-4.67-.41-1.98-.54-3.67-1.6-5.19-2.88-2.87-2.43-5.31-5.26-7.34-8.45-1.11-1.74-1.79-3.67-2.52-5.57-1.09-2.85-2.09-5.74-3.19-8.58-.69-1.79-1.47-3.56-2.23-5.32-.37-.85-.39-.82-1.34-.68-.73.11-1.48.18-2.22.24-1.64.14-3.29.23-4.93.38-1.56.14-3.11.35-4.67.5-.86.09-1.72.13-2.58.21-2.69.23-5.37.59-8.02,1.1-.23.04-.47.06-.7.09-.73.09-1.25.37-1.68,1.07-1.14,1.87-2.42,3.65-3.63,5.48-1.06,1.59-2.11,3.19-3.15,4.8-1.32,2.04-2.53,4.15-3.95,6.11-1.67,2.31-3.93,3.66-6.92,3.58-3.17-.08-5.54-1.5-7.25-4.11-.46-.7-.72-1.48-.91-2.28-.04-.16-.14-.32-.21-.47-.12.14-.24.27-.36.41-.64.79-1.2,1.64-1.97,2.34-3.51,3.17-9.39,2.88-12.61-.55-1.63-1.74-2.51-3.78-2.99-6.03-.67-3.13-1.25-6.28-1.89-9.41-.26-1.26-.56-2.51-.85-3.77-.02-.07-.07-.13-.1-.2-.05.06-.11.11-.14.18-.09.22-.16.44-.24.66-1.23,3.42-3.12,6.43-5.84,8.85-1.02.91-2.16,1.73-3.35,2.42-2.9,1.68-5.92,3.11-9.01,4.42-3.5,1.48-7.06,2.82-10.71,3.91-2.81.84-5.68,1.43-8.57,1.9-3.68.59-7.38.72-11.06.33-3.51-.38-6.95-1.16-10.14-2.79-1.88-.97-3.71-2-5.39-3.29-1.59-1.23-3.16-2.5-4.45-4.05-1.59-1.9-2.47-4.07-2.46-6.6.01-2.27.56-4.36,1.9-6.2,2.44-3.35,5.77-4.78,9.85-4.36,2.02.21,3.83,1.1,5.42,2.37,1.07.86,2.08,1.79,3.16,2.64.48.38,1.05.71,1.63.88,1.2.34,2.42.64,3.7.68,1.89.06,3.79.17,5.67-.11,1.5-.23,3-.56,4.48-.91,3.02-.7,5.92-1.79,8.77-2.99.27-.11.53-.25.8-.38-.28-.18-.55-.38-.84-.52-1.86-.94-3.8-1.66-5.76-2.35-3.26-1.13-6.57-2.08-9.93-2.84-2.25-.51-4.52-.96-6.79-1.38-1.89-.35-3.8-.59-5.69-.95-2.69-.5-5.37-1.09-8.06-1.6-3.14-.6-6.09-1.73-8.94-3.16-1.65-.83-3.25-1.73-4.61-3-1.77-1.65-3.02-3.56-3.38-6.04-.22-1.51-.17-2.99-.06-4.48.07-.88.35-1.77.66-2.61,1.05-2.86,2.71-5.36,4.68-7.69,1.91-2.25,4.24-3.99,6.64-5.66,1.78-1.24,3.66-2.31,5.64-3.2,2.8-1.25,5.69-2.21,8.69-2.84,1.88-.4,3.77-.64,5.68-.84,4.1-.44,8.2-.16,12.29-.09,1.03.02,2.06.06,3.08.13,1.61.11,3.22.22,4.83.39,1.64.17,3.28.35,4.9.62,2.47.41,4.94.85,7.4,1.35,2.91.59,5.81,1.27,8.72,1.9.15.03.32.03.47.06.38.08.61-.09.7-.45.33-1.24.96-2.31,1.84-3.24.16-.17.1-.28-.11-.29-.87-.04-1.74-.07-2.61-.1-4.59-.14-9.18-.25-13.76-.42-1.77-.06-3.54-.17-5.3-.39-1.86-.23-3.74-.5-5.52-1.12-1.63-.57-3.25-1.19-4.52-2.41-.23-.22-.4-.19-.61-.08-1.68.93-3.56,1.16-5.41,1.45-.19.03-.39.02-.59.02-1.5-.04-3.02.03-4.51-.16-2.6-.33-5.21-.38-7.8-.33-1.76.03-3.53-.11-5.29.17-1.47.24-2.97.25-4.45.41-1.4.14-2.79.36-4.19.51-1.01.11-2.04.11-3.05.25-1.97.28-3.94.12-5.91.01-1.13-.06-2.27-.24-3.36-.53-1.81-.49-3.21-1.65-4.3-3.14-1.59-2.18-2.61-4.64-3.42-7.2-.48-1.51-.69-3.07-.69-4.62,0-1.1.39-2.22.71-3.3,1.02-3.41,2.04-6.82,3.14-10.2,1.35-4.17,2.74-8.32,4.2-12.45,1.84-5.2,3.79-10.36,5.68-15.54.55-1.51,1.03-3.04,1.55-4.55.59-1.72,1.32-3.37,2.76-4.57,2.64-2.2,5.57-2.77,8.81-1.46,2.54,1.03,4.12,2.93,4.92,5.5.52,1.66.4,3.35-.11,4.99-1.1,3.55-2.3,7.07-3.38,10.63-1.31,4.29-2.61,8.59-3.78,12.92-.87,3.25-1.52,6.56-2.27,9.84-.1.42-.2.84-.28,1.26-.11.58-.1.59.51.49,2.04-.33,4.09-.68,6.13-.98.77-.11,1.56-.15,2.34-.18,1.42-.06,2.83-.12,4.25-.13,2.84-.03,5.68-.02,8.52-.04.86,0,1.73-.13,2.59-.1.94.03,1.87.18,2.81.26.84.08.89.09.91-.75.07-2.96.17-5.93.25-8.89,0,0,0,0,0,0ZM172.38,40.56s-.04,0-.06,0c.08-2.69.17-5.38.23-8.06.03-1.13-.09-1.22-1.17-1.22-.32,0-.63,0-.95.02-1.01.1-2.02.24-3.03.33-1.48.14-2.98.2-4.46.39-2.21.29-4.4.66-6.6,1.01-1.65.26-3.3.28-4.91-.19-2.05-.59-3.82-1.63-5.04-3.46-.3-.46-.65-.89-.93-1.36-.13-.23-.27-.37-.53-.37-.71-.01-1.42-.02-2.14-.05-.35-.01-.48.15-.51.49-.08.98-.24,1.95-.27,2.93-.15,6.27-.62,12.54-.4,18.83.08,2.28-.17,4.56.02,6.85.14,1.72.08,3.46.11,5.19.03,1.57.07,3.15.1,4.72.03,2.28.04,4.57.08,6.85.02,1.3.09,2.59.08,3.89,0,.66-.18,1.32-.22,1.98-.11,2.27-1.07,4.17-2.62,5.76-1.81,1.86-4.03,2.82-6.66,2.76-.15,0-.3.05-.45.07.1.12.19.25.3.36.14.13.32.23.46.36,1.06.94,2.2,1.81,3.14,2.86,1.37,1.51,2.67,3.1,3.38,5.07.03.07.07.14.11.21.09-.07.2-.13.26-.22.12-.2.25-.41.32-.63.44-1.34,1.3-2.42,2.26-3.4,1.69-1.74,3.8-2.77,6.12-3.39.99-.26,2.02-.44,3.04-.22,1.38.29,2.68.75,3.91,1.49,2.38,1.43,4.48,3.19,6.38,5.17,1.25,1.31,2.4,2.72,3.52,4.14,2.21,2.82,4.23,5.78,6.17,8.79,1.52,2.34,2.96,4.74,4.43,7.11.17.27.29.56.46.82.05.08.18.11.27.16.05-.09.14-.19.15-.29.04-.39.03-.79.1-1.18.36-2.04.73-4.08,1.1-6.12.4-2.24.97-4.43,1.66-6.59.6-1.86,1.31-3.68,2.16-5.45.85-1.77,1.76-3.5,2.9-5.1.41-.57.9-1.09,1.35-1.63.04-.05.04-.15.02-.21,0-.03-.13-.05-.18-.03-.98.39-2.01.3-3.03.3-4.6,0-8.91-4.01-9.05-9.22-.03-1.03.08-2.06.04-3.08-.05-1.57-.19-3.13-.27-4.69-.07-1.26-.11-2.51-.17-3.77-.04-.82-.09-1.64-.16-2.46-.1-1.17-.24-2.33-.33-3.5-.09-1.18-.12-2.35-.18-3.53-.1-1.92-.2-3.84-.29-5.76,0-.16,0-.32,0-.47-.08-1.84-.24-3.68-.23-5.52,0-2.57.13-5.14.21-7.71ZM251.46,104.37s.03,0,.04,0c0-.28.01-.55.02-.83.04-1.15.09-2.29.12-3.44,0-.19-.05-.38-.07-.57-.15.1-.34.16-.45.29-.91,1.09-2.12,1.73-3.43,2.21-1.12.41-2.32.45-3.48.41-1.48-.06-2.96-.33-4.44-.51-1.09-.13-2.19-.24-3.28-.38-.7-.09-1.4-.21-2.09-.33-1.58-.27-3.16-.55-4.75-.81-.77-.13-1.56-.2-2.33-.35-2.01-.38-4.02-.7-6.06-.85-.28-.02-.55-.03-.83-.07-1.28-.16-2.56-.4-3.85-.49-1.77-.13-3.56-.17-5.34-.21-2-.04-3.98.1-5.97.47-2.28.43-4.03,1.59-5.26,3.46-1.27,1.95-2.09,4.12-2.61,6.4-.64,2.79-.99,5.63-1.38,8.46-.29,2.1-.38,4.24-.45,6.36-.03.92.18,1.86.3,2.79.15,1.17.5,2.28.9,3.39.91,2.5,2.38,4.52,4.86,5.67.85.4,1.76.62,2.67.88,2.08.6,4.2.95,6.33,1.23,2.03.27,4.08.34,6.13.43,1.17.05,2.36-.06,3.53-.05,1.81.01,3.62.16,5.43-.09,1.36-.18,2.73-.27,4.07-.51,2.35-.42,4.65-1.02,6.87-1.95,1.28-.53,2.5-1.12,3.64-1.9,1.49-1.02,2.99-2.04,4.48-3.07,1.09-.75,2.34-1.08,3.6-1.39.41-.1.85-.14,1.28-.16.44-.02.62-.19.61-.65-.01-.75,0-1.51.07-2.25.09-.87-.1-1.6-.65-2.29-.91-1.13-1.37-2.51-1.48-3.91-.22-2.66.26-5.16,2.2-7.21.28-.3.52-.71.59-1.11.16-.92.24-1.87.29-2.81.07-1.42.09-2.84.13-4.27ZM74.62,60.01c-.06,2.06-.12,4.11-.18,6.17,0,.24-.05.48,0,.71.02.09.22.24.31.22.46-.1.89-.31,1.35-.38,1.47-.23,2.94-.41,4.41-.61,1.6-.22,3.2-.33,4.81-.32,2.4.02,4.81-.02,7.21-.04.2,0,.39-.04.59-.05,1.29-.1,2.58-.2,3.87-.28.31-.02.64.02.93.13.41.15.78.37.74.93-.03.45.18.32.38.11.83-.86,1.82-1.54,2.9-2.01,2.33-1.02,4.77-1.38,7.24-.66,3.88,1.13,6.54,3.59,7.87,7.45.48,1.42.37,2.86.39,4.32.03,2.05-1.02,3.67-2.04,5.29-.83,1.31-2.02,2.3-3.36,3.11-.09.05-.16.13-.24.2.11.04.22.11.33.1,1.22-.03,2.44-.09,3.65-.1,2.45-.01,4.89.17,7.32.44.15.02.3.07.46.1.65.14,1.3.27,1.96.4.1.02.22-.05.33-.07-.04-.07-.07-.14-.12-.2-.09-.13-.19-.25-.3-.37-1.75-2.04-2.4-4.46-2.35-7.09.01-.9.19-1.79.26-2.69.19-2.67.36-5.35.54-8.02,0-.08,0-.16.01-.24.19-1.91.39-3.82.57-5.74.15-1.61.12-3.22.35-4.83.26-1.79.31-3.61.42-5.41.19-3.07.35-6.14.52-9.21.02-.43.04-.87.05-1.3.07-1.82,0-3.65.24-5.45.23-1.77.18-3.54.32-5.3.03-.39-.09-.6-.52-.57-1.06.07-2.12.12-3.18.18-1.6.1-3.21.22-4.81.32-.28.02-.55,0-.83,0-1.92.08-3.84.16-5.76.26-.66.03-1.32.12-1.99.18-.66.06-1.32.17-1.99.18-2.05.06-4.09-.15-6.15,0-1.96.14-3.93-.13-5.91.08-1.83.19-3.68.24-5.52.37-.7.05-1.4.17-2.09.28-1.81.29-3.62.58-5.43.9-1.92.34-3.86.62-5.72,1.25-1.25.42-2.24,1.13-2.79,2.37-.41.92-.32,1.1.65,1.15.2,0,.4.01.59.02,4.1.09,8.21.32,12.32.14,2.01-.09,4.02-.08,6.03-.12.19,0,.39-.06.58-.07,1.14-.09,2.28-.2,3.39.2.68.25.83.66.47,1.26-.16.27-.36.51-.52.78-.03.05,0,.14,0,.21.06-.02.14-.01.18-.05.4-.37.78-.76,1.2-1.11,1.77-1.48,3.84-2.12,6.12-2.02,1.05.05,2.08.31,3.06.74,2.91,1.27,4.75,3.43,5.39,6.53.58,2.79.02,5.4-1.81,7.6-1.85,2.22-4.26,3.42-7.23,3.38-1.12-.02-2.18-.25-3.22-.63-.42-.16-.78-.18-1.24-.1-1.97.34-3.93.74-5.95.64-3.39-.17-6.78-.14-10.17-.47-2.63-.26-5.3-.2-7.95-.29-.8-.03-.74.02-.76.79-.06,2.09-.12,4.19-.18,6.28ZM259.74,62.81c.4.01.79.04,1.19.03.38-.01.87.22,1.1-.17.15-.25.01-.66,0-.99,0-.87.06-1.74-.01-2.61-.12-1.32-.33-2.63-.51-3.95-.29-2.13-.56-4.26-.87-6.39-.28-1.93-.66-3.85-.9-5.79-.25-2.02-.4-4.05-.58-6.07-.07-.78-.13-1.56-.2-2.34-.16-1.75-.36-3.5-.5-5.26-.09-1.17-.11-2.35-.18-3.53-.02-.31-.11-.62-.17-.92-.05-.25-.18-.18-.32-.06-.93.73-1.94,1.3-3.06,1.72-2.92,1.09-5.75.9-8.54-.44-1.18-.57-2.18-1.38-3.19-2.17-.12-.1-.28-.23-.3.06-.03.63-.46.66-.92.62-1.06-.09-2.11-.21-3.17-.28-2.08-.15-4.16-.29-6.25-.42-2.72-.17-5.45-.02-8.15-.48-.32-.05-.55.07-.62.38-.07.3-.13.61-.17.92-.13.97-.24,1.95-.37,2.92-.18,1.28-.38,2.55-.56,3.83-.03.23-.03.47-.06.71-.12.93-.26,1.86-.38,2.8,0,.06.11.19.17.19.15,0,.31-.04.45-.09,2.3-.76,4.59-1.55,6.9-2.27,1.94-.6,3.9-1.17,5.87-1.63,1.9-.44,3.82-.85,5.76-1.06,2.76-.29,5.22.56,7.18,2.56,1.61,1.63,2.41,3.64,2.4,5.95-.01,1.96-.74,3.68-1.91,5.2-1.69,2.2-4.06,3.13-6.75,3.35-.9.08-1.82.02-2.7.2-2.26.45-4.52.92-6.74,1.54-2.67.75-5.3,1.65-7.93,2.51-1.3.43-2.57.94-3.86,1.4-.32.12-.5.28-.53.67-.08,1.37-.21,2.74-.33,4.11-.07.86-.16,1.72-.24,2.57-.03.33.12.53.45.57.2.03.4.02.59.03,2.28.16,4.56.13,6.85.38,2.94.31,5.91.22,8.86.51,3.06.3,6.14.26,9.21.49,4.64.36,9.31.24,13.96.69ZM57.09,102.27c0-.05,0-.1,0-.15-2.4.04-4.81.1-7.21.11-1.82,0-3.62.25-5.35.68-4.47,1.11-8.46,3.15-11.67,6.54-.43.46-.85.93-1.25,1.41-.35.42-.49,1.16-.24,1.41.32.33.69.37,1.18.28.73-.14,1.46-.23,2.19-.42,1.17-.31,2.37-.51,3.56-.7.77-.12,1.57-.08,2.34-.23,1.42-.29,2.86-.15,4.24.03,2.32.3,4.62.81,6.92,1.31,2.52.55,5.04,1.16,7.54,1.8,3.06.79,6.1,1.68,9.11,2.66,4.77,1.56,9.43,3.37,13.76,5.94,1.79,1.06,3.54,2.17,5.17,3.45.89.7,1.82,1.38,2.44,2.37.06.09.17.16.26.23.04-.14.14-.3.11-.43-.28-1.17-.08-2.35-.1-3.53,0-.16,0-.32-.03-.47-.32-2.13-.68-4.25-.94-6.38-.3-2.41-.53-4.82-.78-7.24-.07-.62-.11-1.25-.19-1.87-.06-.51-.14-.98-.77-1.18-2.88-.9-5.74-1.85-8.62-2.74-2.81-.87-5.68-1.49-8.6-1.84-.94-.11-1.87-.23-2.81-.34-1.56-.19-3.11-.43-4.67-.54-1.85-.12-3.72-.13-5.58-.18ZM304.22,15.87c-.19-.15-.33-.33-.49-.37-.73-.14-1.47-.29-2.21-.32-3.47-.15-6.94-.27-10.42-.11-1.93.09-3.86.07-5.79.11-.04,0-.08,0-.12,0-1.83.17-3.67.32-5.49.51-1.71.18-3.42.39-5.13.6-.46.06-.68.32-.54.72.66,1.87.33,3.81.46,5.72.1,1.38-.06,2.77-.02,4.15.04,1.21.19,2.42.3,3.62.12,1.21.26,2.41.37,3.62.03.29.05.4.4.29.63-.21,1.29-.32,1.93-.49,2.73-.7,5.24-1.92,7.54-3.52,2.79-1.94,5.33-4.2,7.76-6.57.85-.83,1.7-1.65,2.62-2.41,2.16-1.79,4.55-3.21,7.16-4.28.5-.2.94-.56,1.4-.87.11-.08.16-.25.27-.41ZM112.53,101.98s0-.07,0-.11c-2.68.04-5.35.07-8.03.12-.35,0-.69.13-1.04.15-.31.02-.41.17-.41.45,0,.67-.07,1.35-.02,2.01.14,1.83.29,3.66.5,5.48.23,2.01.54,4.02.81,6.03.06.41.27.63.71.63.75,0,1.5,0,2.25.05,1.49.09,2.89-.28,4.22-.86,2.11-.92,3.98-2.18,5.51-3.94,1.64-1.9,2.84-4,3.41-6.46.3-1.31-.32-2.6-1.57-3.04-.58-.2-1.22-.33-1.83-.37-1.5-.09-3-.1-4.5-.15ZM114.55,150.68c.09-.14.15-.23.2-.31,1.62-2.54,3.25-5.08,4.85-7.63,1.25-1.99,2.46-4,3.68-6,.67-1.1,1.34-2.2,2.01-3.31.05-.09.05-.21.08-.32-.13,0-.3-.04-.4.02-1.6,1.01-3.24,1.9-5,2.62-2.88,1.18-5.87,1.89-8.95,2.26-.44.05-.48.1-.35.49.71,2.11,1.43,4.21,2.11,6.33.58,1.78,1.19,3.55,1.49,5.41.02.14.16.25.27.43ZM152.67,123.1c.61-.11,1.46-.26,2.3-.42.53-.1.57-.15.32-.57-.46-.78-.95-1.54-1.42-2.31-.17-.28-.34-.31-.49,0-.44.92-.88,1.83-1.32,2.75-.2.42-.13.52.61.53Z"/><path class="cls-1" d="M21.22,148.47c-.06,3.87-1.62,6.33-4.41,8.02-1.04.63-2.22.99-3.47.98-1.01,0-2,.16-2.97.4-1.28.31-2.5.07-3.72-.24-2.15-.55-3.85-1.83-5.12-3.59-.6-.84-1.01-1.88-1.27-2.89-.46-1.78-.31-3.59.26-5.34.64-1.98,1.81-3.55,3.59-4.66.33-.2.63-.47.89-.75.94-1.06,2.1-1.75,3.48-2.07.99-.23,1.98-.46,3.02-.38,3.65.26,6.46,1.86,8.22,5.1,1.01,1.85,1.6,3.83,1.5,5.43Z"/></g></svg>